<?xml version="1.0" encoding="UTF-8"?>
<svg width="70px" height="70px" viewBox="0 0 70 70" version="1.1" xmlns="http://www.w3.org/2000/svg" xmlns:xlink="http://www.w3.org/1999/xlink">
    <!-- Generator: Sketch 53.2 (72643) - https://sketchapp.com -->
    <title>builtinstep</title>
    <desc>Created with Sketch.</desc>
    <g id="builtinstep" stroke="none" stroke-width="1" fill="none" fill-rule="evenodd">
        <path d="M15.279355,47.45629 C18.902555,45.12249 23.159255,41.12129 21.542955,36.40854 C20.662355,33.84059 19.442255,31.63944 19.279505,28.86359 C19.141955,26.52034 19.492305,24.15294 20.312005,21.95319 C23.560705,13.23329 33.218605,9.10504 41.946555,11.72654 C50.030505,14.15414 55.592355,23.54044 52.241805,31.71994 C50.308755,36.43969 49.442505,40.08424 53.754505,43.75714 C54.923155,44.75289 57.760255,46.24494 57.750105,48.01034 C57.735755,50.32244 53.200105,47.51789 52.693305,47.11574 C53.270105,48.12374 58.988405,54.08564 55.348755,54.51019 C51.998555,54.90044 49.040355,50.22129 47.027155,48.21264 C43.645105,44.83864 44.233455,52.30309 44.218055,53.84484 C44.193905,56.27944 42.474355,61.21304 39.387355,58.00004 C36.837955,55.34739 37.802205,51.11659 36.029455,48.16994 C34.088005,44.94189 30.858205,51.39764 30.051105,52.57889 C29.149155,53.89839 24.638355,60.28729 22.843555,56.88354 C21.387205,54.12134 23.715055,49.78834 24.860255,47.28934 C24.442705,48.19689 21.484505,49.53914 20.619655,49.97559 C18.666655,50.96189 16.684255,51.54709 14.487305,51.38924 C9.941855,51.06304 13.428205,48.65049 15.279355,47.45629 C15.899205,47.05694 14.698705,47.83079 15.279355,47.45629" id="Fill-2" fill="#2F93E0"></path>
    </g>
</svg>